<?xml version="1.0" encoding="utf-8"?>
<!-- Generator: Adobe Illustrator 16.0.0, SVG Export Plug-In . SVG Version: 6.00 Build 0)  -->
<!DOCTYPE svg PUBLIC "-//W3C//DTD SVG 1.1//EN" "http://www.w3.org/Graphics/SVG/1.1/DTD/svg11.dtd">
<svg version="1.1" id="Laag_1" xmlns="http://www.w3.org/2000/svg" xmlns:xlink="http://www.w3.org/1999/xlink" x="0px" y="0px"
	 width="16px" height="16px" viewBox="984.351 289.64 16 16" enable-background="new 984.351 289.64 16 16" xml:space="preserve">
<title>apps</title>
<title>apps</title>
<title>apps</title>
<title>apps</title>
<path d="M1000.364,293.308c0,0.184-0.149,0.333-0.333,0.333h-3.334c-0.184,0-0.335-0.149-0.335-0.333v-3.334
	c0-0.184,0.151-0.333,0.335-0.333h3.334c0.184,0,0.333,0.149,0.333,0.333V293.308z"/>
<path d="M988.361,293.308c0,0.184-0.151,0.333-0.334,0.333h-3.334c-0.185,0-0.334-0.149-0.334-0.333v-3.334
	c0-0.184,0.149-0.333,0.334-0.333h3.334c0.183,0,0.334,0.149,0.334,0.333V293.308z"/>
<path d="M994.362,293.308c0,0.184-0.149,0.333-0.333,0.333h-3.334c-0.185,0-0.334-0.149-0.334-0.333v-3.334
	c0-0.184,0.149-0.333,0.334-0.333h3.334c0.184,0,0.333,0.149,0.333,0.333V293.308z"/>
<path d="M1000.364,299.31c0,0.184-0.149,0.333-0.333,0.333h-3.334c-0.184,0-0.335-0.149-0.335-0.333v-3.334
	c0-0.185,0.151-0.333,0.335-0.333h3.334c0.184,0,0.333,0.149,0.333,0.333V299.31z"/>
<path d="M988.361,299.31c0,0.184-0.151,0.333-0.334,0.333h-3.334c-0.185,0-0.334-0.149-0.334-0.333v-3.334
	c0-0.185,0.149-0.333,0.334-0.333h3.334c0.183,0,0.334,0.149,0.334,0.333V299.31z"/>
<path d="M994.362,299.31c0,0.184-0.149,0.333-0.333,0.333h-3.334c-0.185,0-0.334-0.149-0.334-0.333v-3.334
	c0-0.185,0.149-0.333,0.334-0.333h3.334c0.184,0,0.333,0.149,0.333,0.333V299.31z"/>
<path d="M1000.364,305.312c0,0.184-0.149,0.333-0.333,0.333h-3.334c-0.184,0-0.335-0.149-0.335-0.333v-3.334
	c0-0.184,0.151-0.335,0.335-0.335h3.334c0.184,0,0.333,0.151,0.333,0.335V305.312z"/>
<path d="M988.361,305.312c0,0.184-0.151,0.333-0.334,0.333h-3.334c-0.185,0-0.334-0.149-0.334-0.333v-3.334
	c0-0.184,0.149-0.335,0.334-0.335h3.334c0.183,0,0.334,0.151,0.334,0.335V305.312z"/>
<path d="M994.362,305.312c0,0.184-0.149,0.333-0.333,0.333h-3.334c-0.185,0-0.334-0.149-0.334-0.333v-3.334
	c0-0.184,0.149-0.335,0.334-0.335h3.334c0.184,0,0.333,0.151,0.333,0.335V305.312z"/>
</svg>
